<svg width="20" height="17" viewBox="0 0 20 17" fill="none" xmlns="http://www.w3.org/2000/svg">
<path d="M1.933 10.5682C1.46933 10.0185 1.14881 9.36272 1 8.65918C1 7.65918 5 2.65918 10 2.65918M17.6 6.45918C18.2505 7.05791 18.7331 7.81633 19 8.65918C19 9.65918 16 14.6592 10 14.6592C9.686 14.6592 9.38 14.6458 9.082 14.6192M3 15.6592L17 1.65918M13 8.65918C13 9.45483 12.6839 10.2179 12.1213 10.7805C11.5587 11.3431 10.7956 11.6592 10 11.6592C9.20435 11.6592 8.44129 11.3431 7.87868 10.7805C7.31607 10.2179 7 9.45483 7 8.65918C7 7.86353 7.31607 7.10047 7.87868 6.53786C8.44129 5.97525 9.20435 5.65918 10 5.65918C10.7956 5.65918 11.5587 5.97525 12.1213 6.53786C12.6839 7.10047 13 7.86353 13 8.65918Z" stroke="black" stroke-width="2" stroke-linecap="round" stroke-linejoin="round"/>
</svg>
